# xmcd
#
# Track frame offsets:
#	150
#	13910
#	28052
#	42233
#	60244
#	76966
#	93624
#	102942
#	115769
#	130968
#	142721
#	155274
#	168707
#	182961
#	200774
#	212923
#	226971
#	237870
#	257495
#	269619
#
# Disc length: 3785
#
# Revision: 2
# Processed by: cddbd v1.5.1PL0 Copyright (c) Steve Scherf et al.
# Submitted via: CDmax 2.0
# Normalized: r1:DSETVAR1,TDELIM( - )
#
DISCID=170ec714
DTITLE=Various Artist - The Best Of Boogie Woogie - CD 7
DYEAR=2003
DGENRE=Blues
TTITLE0=Give Me Your Change - Willie Kelly
TTITLE1=My Blue Heaven - Sammy Price
TTITLE2=Down The Road Apiece - Will Bradley
TTITLE3=Chicago In My Mind - Albert Ammons
TTITLE4=Bass On Top - Meade Lux Lewis
TTITLE5=Vine Street Blues - Pete Johnson
TTITLE6=Stormy Weather - Sammy Price
TTITLE7=Three Ring Ragout - Will Bradley
TTITLE8=Gonna Beat It To Memphis - Joe Coleman
TTITLE9=Crescent City Blues - Little Brother Montgomery
TTITLE10=Untitled Boogie Woogie - Sammy Price
TTITLE11=The Gooblie Wooglie Piggy - Will Bradley
TTITLE12=The World Is Waiting For The Sunrise - Sammy Benskin
TTITLE13=Funny Feathers - Art Hodes
TTITLE14=State Street Special - Jimmy Yancey
TTITLE15=Boogie With Riffs - Sammy Price
TTITLE16=Shoot For Joy - Albert Ammons
TTITLE17=The Father's Gateway - Earl Hines
TTITLE18=Aunt Hagar's Blues - Art Tatum
TTITLE19=Barefoot Boogie - Sammy Price
EXTD=
EXTT0=(Sykes)
EXTT1=(Donaldson/Whiting)
EXTT2=(Raye)
EXTT3=(Ammons)
EXTT4=(Lewis)
EXTT5=(Johnson)
EXTT6=(Arlen/Koehler)
EXTT7=(Bradley)
EXTT8=(Coleman)
EXTT9=(Montgomery)
EXTT10=(Price)
EXTT11=(Bradley)
EXTT12=(Unknown)
EXTT13=(Hodes)
EXTT14=(Yancey)
EXTT15=(Price)
EXTT16=(Ammons)
EXTT17=(Hines)
EXTT18=(Tatum)
EXTT19=(Price)
PLAYORDER=
